<?xml version="1.0" standalone="no"?>
<!DOCTYPE svg PUBLIC "-//W3C//DTD SVG 20010904//EN"
 "http://www.w3.org/TR/2001/REC-SVG-20010904/DTD/svg10.dtd">
<svg version="1.0" xmlns="http://www.w3.org/2000/svg"
 width="700.000000pt" height="700.000000pt" viewBox="0 0 700.000000 700.000000"
 preserveAspectRatio="xMidYMid meet">
<metadata>
Created by potrace 1.11, written by Peter Selinger 2001-2013
</metadata>
<g transform="translate(0.000000,700.000000) scale(0.100000,-0.100000)"
fill="#000000" stroke="none">
<path d="M2829 6386 c-2 -2 -22 -7 -44 -10 -147 -23 -297 -100 -411 -211 -45
-44 -94 -100 -110 -125 -40 -62 -90 -170 -99 -211 -4 -19 -10 -38 -13 -44 -9
-15 -12 -45 -18 -186 -6 -121 -5 -126 14 -131 11 -3 25 -1 31 5 6 6 11 7 11 2
0 -6 71 -9 177 -8 l178 1 6 114 c5 97 10 122 33 170 57 117 158 193 281 212
35 6 96 9 110 6 12 -2 46 -2 195 0 63 0 120 0 125 0 13 -2 53 -2 195 0 63 0
120 0 125 0 14 -2 66 -2 155 0 41 1 80 1 85 0 6 -1 71 -1 145 -1 187 0 264
-27 352 -122 21 -22 40 -48 43 -58 4 -11 11 -19 16 -19 6 0 8 -4 4 -9 -3 -5
-1 -12 5 -16 6 -4 7 -11 4 -17 -4 -6 -1 -14 7 -19 9 -5 15 -42 19 -125 l5
-116 190 0 c105 1 198 1 208 1 17 1 18 11 16 119 -2 103 -22 224 -46 282 -3 8
-7 17 -7 21 -3 17 -70 139 -77 139 -5 0 -9 6 -9 14 0 8 -37 52 -83 98 -90 90
-111 108 -127 108 -5 0 -10 4 -10 8 0 25 -256 123 -302 116 -10 -1 -18 1 -18
6 0 8 -1352 14 -1361 6z"/>
<path d="M940 5245 c0 -6 -53 -10 -138 -11 -134 -1 -245 -16 -269 -36 -7 -6
-13 -8 -13 -5 0 13 -136 -56 -194 -97 -138 -99 -264 -274 -291 -406 -1 -3 -7
-32 -15 -65 -12 -57 -15 -216 -5 -315 9 -85 17 -205 19 -260 1 -61 6 -67 76
-94 25 -10 59 -24 75 -31 83 -38 413 -164 440 -169 6 -1 15 -4 20 -8 6 -3 80
-27 165 -52 85 -26 162 -50 170 -53 8 -3 20 -7 25 -8 6 -2 37 -10 70 -20 33
-9 68 -17 78 -16 9 0 17 -4 17 -9 0 -5 8 -8 18 -8 9 1 44 -6 77 -15 61 -16
103 -26 140 -32 11 -2 20 -4 20 -5 0 -2 9 -4 20 -6 23 -4 210 -42 240 -49 11
-2 36 -7 55 -9 19 -3 78 -12 130 -22 52 -9 110 -16 128 -17 17 0 32 -3 32 -7
0 -4 12 -6 28 -5 15 1 32 -1 37 -4 6 -3 31 -6 56 -7 25 0 50 -3 55 -6 5 -3 47
-9 94 -12 47 -4 105 -9 130 -13 25 -3 70 -7 100 -8 30 -2 55 -4 55 -5 0 -1 28
-3 63 -5 34 -1 65 -5 68 -7 15 -16 45 9 63 52 12 27 21 53 21 59 0 6 4 11 9
11 5 0 14 14 22 31 42 103 198 246 341 313 76 36 102 44 213 65 53 10 209 7
260 -4 17 -4 38 -8 47 -9 10 -1 21 -5 24 -9 4 -4 15 -7 23 -7 46 0 243 -119
306 -185 36 -38 97 -113 98 -122 0 -4 9 -17 19 -27 10 -11 18 -25 18 -32 0 -7
6 -19 13 -26 6 -7 19 -33 28 -58 l16 -45 84 2 c46 1 111 4 144 7 33 3 88 7
121 10 34 3 77 7 95 10 33 5 122 15 184 21 17 2 31 4 33 5 1 1 16 4 32 5 17 1
31 3 33 4 1 1 18 4 37 6 19 2 48 6 65 9 16 3 56 8 87 12 32 4 58 10 58 14 0 3
16 6 35 5 19 -1 35 1 35 5 0 4 16 6 35 5 19 0 35 2 35 5 0 3 8 6 18 7 9 1 40
7 67 13 80 17 109 22 128 23 9 1 17 5 17 10 0 4 4 6 9 3 5 -3 29 1 55 8 25 8
46 13 46 11 0 -2 20 3 45 11 25 7 45 10 45 7 0 -3 7 0 15 7 8 6 19 9 25 5 5
-3 10 -2 10 4 0 5 8 10 18 10 22 0 115 23 122 30 5 6 10 7 53 15 12 3 23 5 25
7 1 1 5 2 10 3 13 2 96 28 127 40 17 6 32 11 35 12 33 5 127 39 132 48 4 6 8
8 8 4 0 -6 55 9 100 29 8 3 20 7 25 9 10 2 138 50 165 61 8 3 18 5 23 5 4 -1
7 3 7 8 0 5 3 9 8 8 4 -1 20 4 35 10 16 7 34 12 42 12 7 0 15 4 17 9 1 5 12
11 23 13 11 1 22 5 25 9 7 8 104 44 112 41 12 -3 21 40 24 108 1 36 3 65 4 65
2 0 4 25 5 55 1 30 5 82 9 115 11 95 9 268 -4 316 -7 24 -13 49 -14 54 -11 57
-67 170 -123 247 -43 60 -160 167 -210 193 -21 11 -41 24 -44 28 -3 5 -9 8
-13 7 -3 0 -27 8 -53 20 -25 11 -55 22 -67 25 -12 2 -40 9 -64 15 -24 6 -89
12 -146 13 -56 2 -106 6 -112 10 -6 3 -14 3 -18 0 -11 -12 -196 -11 -189 0 4
6 1 7 -8 1 -18 -11 -99 -13 -106 -2 -2 5 -10 5 -16 0 -14 -10 -207 -10 -223 0
-6 4 -14 4 -18 0 -12 -11 -120 -8 -128 3 -5 7 -8 7 -8 0 0 -13 -269 -14 -289
-1 -9 6 -12 5 -8 -1 8 -13 -91 -11 -112 1 -9 6 -12 5 -7 -2 9 -14 -46 -11 -56
3 -5 7 -8 7 -8 0 0 -12 -308 -14 -326 -3 -6 4 -14 4 -18 0 -11 -11 -276 -9
-269 2 4 5 1 6 -8 0 -18 -11 -99 -13 -105 -2 -3 5 -11 5 -17 1 -19 -11 -197
-11 -190 0 4 6 1 7 -8 1 -18 -11 -99 -13 -106 -2 -2 5 -11 4 -18 -2 -15 -12
-36 -10 -47 5 -5 7 -8 7 -8 0 0 -13 -269 -14 -289 -1 -9 6 -12 5 -8 -1 8 -13
-91 -11 -112 1 -9 6 -12 5 -8 -1 4 -7 -5 -10 -23 -9 -17 0 -30 5 -30 11 0 7
-3 6 -8 0 -4 -6 -38 -11 -77 -11 -38 0 -73 5 -77 11 -5 6 -8 7 -8 0 0 -13
-269 -14 -289 -1 -9 6 -12 5 -8 -1 8 -13 -91 -11 -112 1 -9 6 -12 5 -7 -2 9
-14 -46 -11 -56 3 -5 7 -8 7 -8 0 0 -12 -308 -14 -326 -3 -6 4 -14 4 -18 0
-12 -11 -120 -8 -128 3 -5 7 -8 7 -8 0 0 -13 -269 -14 -289 -1 -9 6 -12 5 -8
-1 8 -13 -91 -11 -112 1 -9 6 -12 5 -7 -2 9 -14 -46 -11 -56 3 -5 7 -8 7 -8 0
0 -12 -308 -14 -327 -2 -6 4 -14 4 -17 -1 -6 -10 -286 -9 -302 0 -6 4 -14 4
-18 0 -12 -11 -120 -8 -128 3 -5 7 -8 7 -8 0z"/>
<path d="M3488 3545 c-1 -1 -21 -5 -43 -8 -73 -10 -151 -39 -193 -72 -23 -17
-86 -80 -106 -104 -20 -26 -51 -92 -48 -103 1 -5 -2 -8 -6 -8 -16 0 -26 -218
-11 -237 6 -7 9 -20 5 -28 -3 -8 -2 -15 2 -15 8 0 36 -60 33 -72 0 -5 3 -8 8
-8 5 0 12 -8 15 -18 8 -25 70 -86 124 -122 97 -64 245 -84 363 -47 35 10 66
22 69 26 3 3 17 12 32 20 63 32 192 203 171 225 -4 3 -2 6 3 6 11 0 12 6 20
116 5 70 3 90 -20 155 -14 40 -30 75 -36 77 -5 2 -10 9 -10 16 0 37 -193 190
-214 169 -3 -4 -6 -2 -6 3 0 10 -29 16 -82 18 -16 1 -28 3 -28 6 0 6 -36 11
-42 5z"/>
<path d="M85 3422 c5 -87 14 -216 20 -267 2 -22 5 -68 6 -102 1 -35 5 -63 8
-63 3 0 7 -28 7 -63 3 -133 9 -237 14 -237 3 0 5 -24 6 -52 0 -29 3 -89 7
-133 3 -44 9 -118 13 -165 7 -96 12 -155 13 -155 1 0 4 -40 6 -90 3 -49 8
-117 11 -150 2 -33 6 -89 9 -125 2 -36 6 -85 9 -110 2 -25 8 -94 11 -155 4
-60 9 -126 11 -145 3 -19 7 -60 9 -90 3 -30 6 -64 8 -75 14 -74 22 -104 34
-135 22 -53 66 -144 73 -150 3 -3 17 -21 30 -40 97 -140 292 -264 472 -298 37
-6 5224 -8 5276 -2 17 3 32 8 32 13 0 4 6 7 13 5 33 -6 203 70 270 122 151
117 265 302 290 471 2 8 5 19 8 24 3 6 5 43 5 83 -1 39 2 72 5 72 3 0 7 31 8
69 1 38 3 77 5 87 3 17 15 181 21 289 2 22 4 40 5 40 1 0 3 25 5 55 5 93 16
230 31 410 2 30 6 87 9 125 3 39 7 97 10 130 2 33 7 101 11 150 9 133 13 184
18 240 3 28 6 79 7 115 2 36 4 69 7 73 4 8 7 56 16 230 3 60 1 67 -13 62 -9
-4 -45 -18 -81 -32 -36 -14 -71 -29 -77 -35 -7 -6 -13 -8 -13 -5 0 4 -30 -5
-67 -19 -37 -14 -72 -26 -77 -27 -6 -1 -13 -4 -16 -7 -4 -4 -165 -59 -190 -65
-3 -1 -39 -12 -80 -25 -41 -13 -78 -25 -82 -26 -5 -1 -10 -3 -13 -4 -3 -1 -8
-3 -12 -4 -44 -12 -101 -28 -113 -33 -19 -7 -50 -13 -72 -14 -10 0 -18 -4 -18
-8 0 -7 -128 -37 -142 -33 -5 1 -8 -2 -8 -6 0 -4 -10 -9 -22 -10 -32 -2 -172
-35 -178 -41 -3 -4 -16 -6 -30 -5 -14 0 -29 -2 -35 -5 -11 -6 -11 -6 -65 -15
-19 -3 -55 -11 -80 -16 -47 -10 -98 -19 -140 -25 -14 -2 -36 -6 -50 -9 -13 -3
-42 -8 -65 -11 -22 -4 -53 -8 -70 -11 -16 -3 -46 -8 -65 -10 -19 -2 -51 -7
-70 -9 -57 -8 -91 -12 -160 -19 -36 -4 -76 -9 -90 -11 -35 -5 -169 -17 -205
-19 -16 0 -33 -5 -37 -11 -5 -6 -8 -5 -8 3 0 7 -5 10 -11 6 -6 -4 -39 -8 -73
-10 -76 -4 -137 -11 -139 -15 -2 -2 -9 -22 -16 -44 -48 -148 -160 -291 -304
-389 -38 -25 -75 -46 -83 -46 -8 0 -14 -4 -14 -8 0 -5 -28 -16 -62 -27 -35
-10 -67 -20 -73 -24 -5 -3 -19 -6 -30 -7 -11 -2 -40 -6 -65 -10 -72 -11 -194
-7 -265 10 -46 11 -132 40 -142 48 -7 6 -13 7 -13 2 0 -5 -4 -4 -8 1 -4 6 -28
20 -53 33 -62 31 -92 54 -174 138 -66 66 -137 171 -162 239 -6 17 -15 39 -19
50 -4 11 -6 23 -6 28 1 4 -4 8 -10 8 -47 5 -57 7 -67 13 -6 4 -11 1 -11 -6 0
-8 -3 -9 -8 -3 -4 6 -29 10 -57 9 -27 0 -54 2 -60 5 -5 3 -32 6 -60 7 -27 1
-72 4 -100 8 -27 3 -79 8 -115 11 -36 3 -78 8 -95 11 -36 6 -101 15 -135 18
-23 2 -91 12 -150 22 -14 2 -51 7 -82 11 -32 3 -58 9 -58 12 0 4 -18 6 -40 5
-22 0 -40 2 -40 6 0 3 -10 6 -22 7 -13 1 -34 4 -48 7 -67 15 -128 27 -155 30
-16 2 -30 5 -30 6 0 1 -7 3 -16 5 -19 3 -154 34 -184 42 -11 3 -27 6 -35 7 -9
1 -20 4 -25 7 -6 3 -17 5 -25 4 -8 0 -17 2 -20 5 -3 3 -39 14 -80 24 -41 10
-147 41 -235 67 -88 27 -171 52 -185 55 -13 3 -30 10 -37 16 -7 6 -13 8 -13 5
0 -3 -27 5 -59 18 -33 13 -62 20 -65 17 -3 -3 -6 -1 -6 5 0 5 -6 10 -12 11
-18 1 -39 7 -73 21 -27 10 -115 44 -185 69 -14 5 -29 11 -35 12 -5 1 -18 6
-27 11 -15 8 -16 2 -13 -59z"/>
</g>
</svg>
